<?xml version="1.0" encoding="UTF-8" standalone="no"?> <!-- Created with Inkscape (http://www.inkscape.org/) --> <svg xmlns:dc="http://purl.org/dc/elements/1.1/" xmlns:cc="http://creativecommons.org/ns#" xmlns:rdf="http://www.w3.org/1999/02/22-rdf-syntax-ns#" xmlns:svg="http://www.w3.org/2000/svg" xmlns="http://www.w3.org/2000/svg" xmlns:sodipodi="http://sodipodi.sourceforge.net/DTD/sodipodi-0.dtd" xmlns:inkscape="http://www.inkscape.org/namespaces/inkscape" width="170" height="40" viewBox="0 0 44.979165 10.583333" version="1.1" id="svg5623" inkscape:version="0.92.4 (5da689c313, 2019-01-14)" sodipodi:docname="bas_logo_40.svg"><defs id="defs5617"></defs><metadata id="metadata5620"></metadata><g inkscape:label="Layer 1" inkscape:groupmode="layer" id="layer1" transform="translate(0,-286.41665)"><g id="g5793" transform="translate(0.06254506,0.04795824)"><path style="fill:#00aeef;stroke-width:0.58731717" d="m 0.17516652,288.37684 v 8.53695 H 8.1689934 v -8.53695 z m 1.72909338,1.21491 h 2.7202473 c 1.1540783,0 1.8494993,0.50318 1.8494993,1.51102 v 0.26562 c 0,0.62315 -0.219733,1.0072 -0.769462,1.20923 v 0.0181 c 0.6513348,0.20145 0.9074385,0.63119 0.907438,1.37356 v 0.339 c 0,1.00725 -0.6964296,1.51102 -1.8593178,1.51102 H 1.9042599 Z m 1.3187825,1.12551 v 5.2e-4 1.38286 h 1.0810708 c 0.6683673,0 0.8971028,-0.1739 0.8971028,-0.632 v -0.12816 c 0,-0.46692 -0.2657004,-0.62322 -0.824239,-0.62322 z m 0,2.50114 v 1.47433 h 1.2552203 c 0.5497293,0 0.8154543,-0.1552 0.8154543,-0.6227 v -0.21962 h -0.00103 c 0,-0.44871 -0.2193631,-0.63201 -0.8883178,-0.63201 z" id="rect5476" inkscape:connector-curvature="0"></path><path style="fill:#00aeef;stroke-width:2.21978164" d="M 42.263672 7.5898438 L 42.263672 39.855469 L 72.482422 39.855469 L 72.482422 7.5898438 L 42.263672 7.5898438 z M 54.423828 12.181641 L 60.378906 12.181641 L 67.509766 35.71875 L 62.283203 35.71875 L 60.966797 31.044922 L 53.595703 31.044922 L 52.279297 35.716797 L 47.292969 35.716797 L 54.423828 12.181641 z M 57.298828 17.925781 L 54.804688 26.787109 L 59.755859 26.787109 L 57.298828 17.925781 z " transform="matrix(0.26458332,0,0,0.26458332,-0.06254506,286.36869)" id="rect5478"></path><path style="fill:#00aeef;stroke-width:2.21978164" d="M 83.632812 7.5898438 L 83.632812 39.855469 L 113.84961 39.855469 L 113.84961 7.5898438 L 83.632812 7.5898438 z M 98.914062 11.832031 C 104.72767 11.832031 107.36133 14.082969 107.36133 18.513672 L 107.36133 19.207031 L 102.58398 19.207031 L 102.58398 18.826172 C 102.58398 17.025945 101.78991 16.091797 98.986328 16.091797 C 96.562324 16.091797 95.490234 16.785023 95.490234 18.412109 L 95.490234 19 C 95.490234 20.212019 96.00626 20.732216 97.53125 21.042969 L 102.34375 22.044922 C 106.35934 22.875133 107.84766 24.53818 107.84766 28.138672 L 107.84766 29.037109 C 107.84766 33.640914 105.70117 36.066406 98.986328 36.066406 C 92.23153 36.064176 90.119141 33.640914 90.119141 29.037109 L 90.119141 27.861328 L 94.929688 27.861328 L 94.929688 28.96875 C 94.929688 30.908857 95.797756 31.808594 98.912109 31.808594 C 101.99317 31.808594 102.82422 30.908857 102.82422 28.96875 L 102.82422 28.623047 C 102.82422 27.375538 102.30588 26.822509 100.81641 26.511719 L 96.003906 25.505859 C 91.955023 24.675648 90.466797 22.979303 90.466797 19.412109 L 90.466797 18.513672 C 90.466797 14.25611 92.645398 11.832031 98.914062 11.832031 z " transform="matrix(0.26458332,0,0,0.26458332,-0.06254506,286.36869)" id="rect5480"></path><g id="g5544" transform="matrix(0.58731725,0,0,0.58731725,-1.2403795,284.29391)"><path id="path5494" d="M 61.552,10.688 C 61.532,10.313 61.508,9.861 61.512,9.525 H 61.5 c -0.092,0.316 -0.204,0.651 -0.34,1.023 l -0.476,1.307 H 60.42 L 59.984,10.572 C 59.856,10.192 59.748,9.844 59.671,9.525 h -0.008 c -0.008,0.336 -0.028,0.788 -0.052,1.191 l -0.072,1.155 h -0.332 l 0.188,-2.694 h 0.443 l 0.46,1.303 c 0.112,0.332 0.204,0.627 0.271,0.907 h 0.013 c 0.067,-0.271 0.164,-0.567 0.283,-0.907 l 0.48,-1.303 h 0.443 l 0.168,2.694 h -0.34 z" stroke-miterlimit="10" inkscape:connector-curvature="0" style="fill:#a7a9ac;stroke:#a7a9ac;stroke-width:0.1;stroke-miterlimit:10"></path><path id="path5496" d="m 62.841,9.177 v 2.694 H 62.493 V 9.177 Z" stroke-miterlimit="10" inkscape:connector-curvature="0" style="fill:#a7a9ac;stroke:#a7a9ac;stroke-width:0.1;stroke-miterlimit:10"></path><path id="path5498" d="M 63.445,11.871 V 9.177 h 0.38 l 0.863,1.363 c 0.2,0.315 0.356,0.6 0.484,0.875 L 65.18,11.411 C 65.148,11.052 65.14,10.723 65.14,10.304 V 9.177 h 0.328 v 2.694 H 65.115 L 64.26,10.504 c -0.188,-0.3 -0.367,-0.608 -0.504,-0.899 l -0.012,0.004 c 0.021,0.34 0.028,0.664 0.028,1.111 v 1.151 z" stroke-miterlimit="10" inkscape:connector-curvature="0" style="fill:#a7a9ac;stroke:#a7a9ac;stroke-width:0.1;stroke-miterlimit:10"></path><path id="path5500" d="m 66.421,9.177 v 2.694 H 66.073 V 9.177 Z" stroke-miterlimit="10" inkscape:connector-curvature="0" style="fill:#a7a9ac;stroke:#a7a9ac;stroke-width:0.1;stroke-miterlimit:10"></path><path id="path5502" d="M 67.025,11.871 V 9.177 h 0.38 l 0.863,1.363 c 0.2,0.315 0.356,0.6 0.484,0.875 L 68.76,11.411 C 68.728,11.052 68.72,10.723 68.72,10.304 V 9.177 h 0.328 v 2.694 H 68.695 L 67.84,10.504 c -0.188,-0.3 -0.367,-0.608 -0.504,-0.899 l -0.012,0.004 c 0.021,0.34 0.028,0.664 0.028,1.111 v 1.151 z" stroke-miterlimit="10" inkscape:connector-curvature="0" style="fill:#a7a9ac;stroke:#a7a9ac;stroke-width:0.1;stroke-miterlimit:10"></path><path id="path5504" d="m 71.704,11.751 c -0.155,0.056 -0.464,0.148 -0.827,0.148 -0.408,0 -0.744,-0.104 -1.008,-0.355 -0.231,-0.224 -0.376,-0.584 -0.376,-1.003 0.004,-0.804 0.556,-1.392 1.46,-1.392 0.312,0 0.556,0.068 0.671,0.124 L 71.54,9.556 C 71.396,9.492 71.217,9.44 70.944,9.44 c -0.655,0 -1.083,0.408 -1.083,1.083 0,0.684 0.412,1.087 1.039,1.087 0.229,0 0.384,-0.032 0.464,-0.072 v -0.803 h -0.548 v -0.28 h 0.888 z" stroke-miterlimit="10" inkscape:connector-curvature="0" style="fill:#a7a9ac;stroke:#a7a9ac;stroke-width:0.1;stroke-miterlimit:10"></path><path id="path5506" d="m 74.764,11.871 c -0.076,-0.076 -0.148,-0.152 -0.252,-0.264 -0.232,0.216 -0.492,0.308 -0.788,0.308 -0.523,0 -0.827,-0.352 -0.827,-0.755 0,-0.368 0.22,-0.62 0.527,-0.788 V 10.36 C 73.284,10.184 73.2,9.988 73.2,9.797 c 0,-0.328 0.236,-0.664 0.684,-0.664 0.336,0 0.596,0.224 0.596,0.571 0,0.284 -0.164,0.508 -0.592,0.72 v 0.012 c 0.228,0.264 0.483,0.56 0.656,0.751 0.123,-0.188 0.207,-0.448 0.26,-0.788 h 0.319 c -0.072,0.424 -0.188,0.76 -0.388,0.996 0.144,0.152 0.284,0.304 0.443,0.476 z M 74.34,11.407 c -0.16,-0.176 -0.46,-0.503 -0.76,-0.848 -0.144,0.092 -0.348,0.264 -0.348,0.548 0,0.308 0.228,0.544 0.552,0.544 0.232,0 0.428,-0.104 0.556,-0.244 z M 73.521,9.764 c 0,0.192 0.088,0.34 0.203,0.484 0.272,-0.156 0.448,-0.3 0.448,-0.528 0,-0.164 -0.092,-0.348 -0.313,-0.348 -0.223,10e-4 -0.338,0.184 -0.338,0.392 z" stroke-miterlimit="10" inkscape:connector-curvature="0" style="fill:#a7a9ac;stroke:#a7a9ac;stroke-width:0.1;stroke-miterlimit:10"></path><path id="path5508" d="m 59.281,13.212 c 0.176,-0.036 0.428,-0.056 0.668,-0.056 0.371,0 0.611,0.068 0.779,0.22 0.136,0.12 0.212,0.304 0.212,0.512 0,0.356 -0.224,0.592 -0.508,0.688 v 0.012 c 0.208,0.072 0.332,0.264 0.396,0.543 0.088,0.376 0.152,0.636 0.208,0.74 h -0.359 c -0.044,-0.076 -0.104,-0.308 -0.18,-0.644 -0.08,-0.372 -0.225,-0.512 -0.54,-0.524 h -0.328 v 1.167 h -0.348 z m 0.348,1.228 h 0.356 c 0.371,0 0.607,-0.204 0.607,-0.512 0,-0.348 -0.252,-0.5 -0.62,-0.504 -0.168,0 -0.287,0.016 -0.344,0.032 v 0.984 z" stroke-miterlimit="10" inkscape:connector-curvature="0" style="fill:#a7a9ac;stroke:#a7a9ac;stroke-width:0.1;stroke-miterlimit:10"></path><path id="path5510" d="m 62.825,14.608 h -1.048 v 0.971 h 1.168 v 0.292 H 61.43 v -2.694 h 1.455 v 0.292 h -1.107 v 0.852 h 1.048 v 0.287 z" stroke-miterlimit="10" inkscape:connector-curvature="0" style="fill:#a7a9ac;stroke:#a7a9ac;stroke-width:0.1;stroke-miterlimit:10"></path><path id="path5512" d="m 65.276,15.783 c -0.128,0.064 -0.384,0.128 -0.711,0.128 -0.76,0 -1.332,-0.48 -1.332,-1.363 0,-0.844 0.572,-1.415 1.407,-1.415 0.336,0 0.548,0.072 0.64,0.12 l -0.084,0.284 c -0.132,-0.063 -0.319,-0.112 -0.543,-0.112 -0.632,0 -1.052,0.404 -1.052,1.111 0,0.66 0.38,1.083 1.035,1.083 0.212,0 0.428,-0.044 0.568,-0.112 z" stroke-miterlimit="10" inkscape:connector-curvature="0" style="fill:#a7a9ac;stroke:#a7a9ac;stroke-width:0.1;stroke-miterlimit:10"></path><path id="path5514" d="m 66.321,15.871 v -1.144 l -0.852,-1.551 h 0.396 l 0.38,0.743 c 0.104,0.204 0.185,0.368 0.269,0.556 h 0.008 c 0.076,-0.176 0.168,-0.352 0.271,-0.556 l 0.388,-0.743 h 0.396 l -0.904,1.547 v 1.147 h -0.352 z" stroke-miterlimit="10" inkscape:connector-curvature="0" style="fill:#a7a9ac;stroke:#a7a9ac;stroke-width:0.1;stroke-miterlimit:10"></path><path id="path5516" d="m 69.621,15.783 c -0.128,0.064 -0.384,0.128 -0.711,0.128 -0.76,0 -1.332,-0.48 -1.332,-1.363 0,-0.844 0.572,-1.415 1.407,-1.415 0.336,0 0.548,0.072 0.64,0.12 l -0.084,0.284 c -0.132,-0.063 -0.319,-0.112 -0.543,-0.112 -0.632,0 -1.052,0.404 -1.052,1.111 0,0.66 0.38,1.083 1.035,1.083 0.212,0 0.428,-0.044 0.568,-0.112 z" stroke-miterlimit="10" inkscape:connector-curvature="0" style="fill:#a7a9ac;stroke:#a7a9ac;stroke-width:0.1;stroke-miterlimit:10"></path><path id="path5518" d="m 70.055,13.177 h 0.348 v 2.402 h 1.151 v 0.292 h -1.499 z" stroke-miterlimit="10" inkscape:connector-curvature="0" style="fill:#a7a9ac;stroke:#a7a9ac;stroke-width:0.1;stroke-miterlimit:10"></path><path id="path5520" d="m 72.285,13.177 v 2.694 h -0.348 v -2.694 z" stroke-miterlimit="10" inkscape:connector-curvature="0" style="fill:#a7a9ac;stroke:#a7a9ac;stroke-width:0.1;stroke-miterlimit:10"></path><path id="path5522" d="m 72.89,15.871 v -2.694 h 0.38 l 0.863,1.363 c 0.2,0.315 0.356,0.6 0.484,0.875 l 0.008,-0.004 c -0.032,-0.359 -0.04,-0.688 -0.04,-1.107 v -1.127 h 0.328 v 2.694 H 74.56 l -0.855,-1.367 c -0.188,-0.3 -0.367,-0.608 -0.504,-0.899 l -0.012,0.004 c 0.021,0.34 0.028,0.664 0.028,1.111 v 1.151 z" stroke-miterlimit="10" inkscape:connector-curvature="0" style="fill:#a7a9ac;stroke:#a7a9ac;stroke-width:0.1;stroke-miterlimit:10"></path><path id="path5524" d="m 77.568,15.751 c -0.155,0.056 -0.464,0.148 -0.827,0.148 -0.408,0 -0.744,-0.104 -1.008,-0.355 -0.231,-0.224 -0.376,-0.584 -0.376,-1.003 0.004,-0.804 0.556,-1.392 1.46,-1.392 0.312,0 0.556,0.068 0.671,0.124 l -0.084,0.284 c -0.144,-0.064 -0.323,-0.116 -0.596,-0.116 -0.655,0 -1.083,0.408 -1.083,1.083 0,0.684 0.412,1.087 1.039,1.087 0.229,0 0.384,-0.032 0.464,-0.072 V 14.736 H 76.68 v -0.28 h 0.888 z" stroke-miterlimit="10" inkscape:connector-curvature="0" style="fill:#a7a9ac;stroke:#a7a9ac;stroke-width:0.1;stroke-miterlimit:10"></path><path id="path5526" d="m 59.233,19.447 c 0.156,0.096 0.384,0.176 0.624,0.176 0.355,0 0.563,-0.188 0.563,-0.459 0,-0.252 -0.145,-0.396 -0.508,-0.536 -0.439,-0.156 -0.712,-0.384 -0.712,-0.764 0,-0.42 0.348,-0.731 0.872,-0.731 0.275,0 0.476,0.064 0.596,0.132 l -0.097,0.284 c -0.088,-0.048 -0.268,-0.128 -0.512,-0.128 -0.367,0 -0.508,0.22 -0.508,0.404 0,0.252 0.164,0.376 0.536,0.52 0.456,0.176 0.688,0.396 0.688,0.792 0,0.416 -0.308,0.775 -0.943,0.775 -0.26,0 -0.544,-0.076 -0.688,-0.172 z" stroke-miterlimit="10" inkscape:connector-curvature="0" style="fill:#a7a9ac;stroke:#a7a9ac;stroke-width:0.1;stroke-miterlimit:10"></path><path id="path5528" d="m 63.552,18.496 c 0,0.927 -0.563,1.419 -1.251,1.419 -0.712,0 -1.212,-0.552 -1.212,-1.367 0,-0.855 0.532,-1.415 1.252,-1.415 0.735,0 1.211,0.563 1.211,1.363 z m -2.091,0.044 c 0,0.576 0.312,1.091 0.859,1.091 0.552,0 0.863,-0.508 0.863,-1.12 0,-0.536 -0.279,-1.095 -0.859,-1.095 -0.575,0.001 -0.863,0.532 -0.863,1.124 z" stroke-miterlimit="10" inkscape:connector-curvature="0" style="fill:#a7a9ac;stroke:#a7a9ac;stroke-width:0.1;stroke-miterlimit:10"></path><path id="path5530" d="m 64.001,17.177 h 0.348 v 2.402 H 65.5 v 0.292 h -1.499 z" stroke-miterlimit="10" inkscape:connector-curvature="0" style="fill:#a7a9ac;stroke:#a7a9ac;stroke-width:0.1;stroke-miterlimit:10"></path><path id="path5532" d="m 66.089,17.177 v 1.595 c 0,0.604 0.269,0.86 0.628,0.86 0.399,0 0.655,-0.264 0.655,-0.86 v -1.595 h 0.353 v 1.571 c 0,0.828 -0.437,1.167 -1.02,1.167 -0.552,0 -0.968,-0.316 -0.968,-1.151 v -1.587 z" stroke-miterlimit="10" inkscape:connector-curvature="0" style="fill:#a7a9ac;stroke:#a7a9ac;stroke-width:0.1;stroke-miterlimit:10"></path><path id="path5534" d="m 68.837,17.473 h -0.819 v -0.296 h 1.995 v 0.296 h -0.824 v 2.398 h -0.352 z" stroke-miterlimit="10" inkscape:connector-curvature="0" style="fill:#a7a9ac;stroke:#a7a9ac;stroke-width:0.1;stroke-miterlimit:10"></path><path id="path5536" d="m 70.657,17.177 v 2.694 H 70.31 v -2.694 z" stroke-miterlimit="10" inkscape:connector-curvature="0" style="fill:#a7a9ac;stroke:#a7a9ac;stroke-width:0.1;stroke-miterlimit:10"></path><path id="path5538" d="m 73.563,18.496 c 0,0.927 -0.563,1.419 -1.251,1.419 -0.712,0 -1.212,-0.552 -1.212,-1.367 0,-0.855 0.532,-1.415 1.252,-1.415 0.736,0 1.211,0.563 1.211,1.363 z m -2.09,0.044 c 0,0.576 0.312,1.091 0.859,1.091 0.552,0 0.863,-0.508 0.863,-1.12 0,-0.536 -0.279,-1.095 -0.859,-1.095 -0.575,0.001 -0.863,0.532 -0.863,1.124 z" stroke-miterlimit="10" inkscape:connector-curvature="0" style="fill:#a7a9ac;stroke:#a7a9ac;stroke-width:0.1;stroke-miterlimit:10"></path><path id="path5540" d="m 74.013,19.871 v -2.694 h 0.38 l 0.863,1.363 c 0.2,0.315 0.356,0.6 0.484,0.875 l 0.008,-0.004 c -0.032,-0.359 -0.04,-0.688 -0.04,-1.107 v -1.127 h 0.328 v 2.694 h -0.353 l -0.855,-1.367 c -0.188,-0.3 -0.367,-0.608 -0.504,-0.899 l -0.012,0.004 c 0.021,0.34 0.028,0.664 0.028,1.111 v 1.151 z" stroke-miterlimit="10" inkscape:connector-curvature="0" style="fill:#a7a9ac;stroke:#a7a9ac;stroke-width:0.1;stroke-miterlimit:10"></path><path id="path5542" d="m 76.593,19.447 c 0.156,0.096 0.384,0.176 0.624,0.176 0.355,0 0.563,-0.188 0.563,-0.459 0,-0.252 -0.145,-0.396 -0.508,-0.536 -0.439,-0.156 -0.712,-0.384 -0.712,-0.764 0,-0.42 0.348,-0.731 0.872,-0.731 0.275,0 0.476,0.064 0.596,0.132 l -0.097,0.284 c -0.088,-0.048 -0.268,-0.128 -0.512,-0.128 -0.367,0 -0.508,0.22 -0.508,0.404 0,0.252 0.164,0.376 0.536,0.52 0.456,0.176 0.688,0.396 0.688,0.792 0,0.416 -0.308,0.775 -0.943,0.775 -0.26,0 -0.544,-0.076 -0.688,-0.172 z" stroke-miterlimit="10" inkscape:connector-curvature="0" style="fill:#a7a9ac;stroke:#a7a9ac;stroke-width:0.1;stroke-miterlimit:10"></path></g><g id="g5550" transform="matrix(0.58731725,0,0,0.58731725,-1.2403795,284.29391)"><path id="path5546" d="m 55.266,5.124 c 0,-0.843 0.683,-1.527 1.527,-1.526 0.842,0.001 1.523,0.685 1.523,1.526 0,0.843 -0.686,1.526 -1.523,1.526 -0.845,0 -1.527,-0.684 -1.527,-1.526 z m 2.741,0.001 c 0,-0.673 -0.542,-1.216 -1.214,-1.216 -0.67,0 -1.219,0.543 -1.219,1.216 0,0.671 0.547,1.216 1.219,1.216 0.669,0 1.214,-0.546 1.214,-1.216 z" inkscape:connector-curvature="0" style="clip-rule:evenodd;fill:#00aeef;fill-rule:evenodd"></path><path id="path5548" d="m 56.123,4.291 h 0.004 c 0.22,0 0.439,-0.001 0.66,0 0.091,0 0.182,0.01 0.273,0.036 0.065,0.019 0.127,0.045 0.182,0.091 0.054,0.047 0.084,0.105 0.101,0.174 0.024,0.097 0.024,0.195 -0.003,0.292 -0.029,0.086 -0.078,0.151 -0.158,0.198 -0.033,0.025 -0.074,0.042 -0.119,0.055 0,0 -0.002,0.002 -0.006,0.004 0,0 0.004,0 0.006,0.002 0.063,0.016 0.119,0.055 0.16,0.106 0.047,0.05 0.08,0.11 0.109,0.169 0.076,0.154 0.152,0.308 0.229,0.46 0.002,10e-4 0.004,0.005 0.004,0.008 -0.002,10e-4 -0.006,10e-4 -0.006,10e-4 -0.141,0 -0.282,0 -0.428,0.001 0,0 -0.005,-0.003 -0.008,-0.009 C 57.057,5.747 56.99,5.613 56.926,5.481 56.903,5.439 56.883,5.402 56.856,5.366 56.813,5.319 56.761,5.291 56.698,5.286 56.655,5.282 56.604,5.283 56.552,5.282 c 0,0 -0.01,0 -0.019,0 0,0.202 0,0.403 0,0.605 -0.132,0 -0.273,0 -0.409,0 C 56.123,5.355 56.123,4.824 56.123,4.291 Z M 56.532,5 h 0.009 c 0.061,0 0.119,0 0.176,0 0.038,0 0.072,-0.004 0.104,-0.015 0.062,-0.017 0.101,-0.049 0.119,-0.108 0.017,-0.054 0.017,-0.109 0,-0.164 C 56.925,4.657 56.89,4.621 56.834,4.604 56.796,4.592 56.758,4.588 56.717,4.588 c -0.057,0 -0.115,0 -0.176,0 h -0.009 c 0,0.14 0,0.274 0,0.412 z" inkscape:connector-curvature="0" style="clip-rule:evenodd;fill:#00aeef;fill-rule:evenodd"></path></g></g></g></svg> 